<svg width="223" height="39" viewBox="0 0 223 39" fill="none" xmlns="http://www.w3.org/2000/svg">
<path d="M12.2387 13.1123L12.2431 13.1747L12.9052 21.3529L17.3187 17.5496L17.4163 17.4275L19.7984 11.626L16.4727 7.23877L12.163 12.187L12.2387 13.1123Z" fill="#A0D3F3"/>
<path d="M2.04488 17.5522L0.0030365 24.5206L5.46994 22.6444L2.04488 17.5522Z" fill="#A0D3F3"/>
<path d="M20.2678 12.3126L20.2672 12.3133H20.2678V12.3126Z" fill="#A0D3F3"/>
<path d="M23.472 17.9298L20.346 12.4496L18.3147 17.396L23.472 17.9298Z" fill="#A0D3F3"/>
<path d="M13.015 32.8227L12.4223 25.525L6.22464 23.3696C6.17576 23.3955 6.12452 23.4167 6.07163 23.4328L0.012928 25.5119C-0.000260669 25.7686 -0.000260669 26.0259 0.012928 26.2827L5.98721 30.2283L13.015 32.8227Z" fill="#A0D3F3"/>
<path d="M12.3382 24.4978L12.1351 21.9614C12.1305 21.9463 12.1284 21.9306 12.1289 21.9149V21.9034L11.4439 13.4425L3.27564 14.9017C3.01887 15.4829 2.77353 16.0562 2.54578 16.6067L6.47295 22.4522L12.3382 24.4978Z" fill="#A0D3F3"/>
<path d="M0.0684204 27.4504L1.64509 31.9L4.77117 30.5549L0.0684204 27.4504Z" fill="#A0D3F3"/>
<path d="M1.68706 32.0164H1.68772L1.68706 32.0157V32.0164Z" fill="#A0D3F3"/>
<path d="M5.87391 9.17468L3.5964 13.8902L10.3595 12.6813L5.87391 9.17468Z" fill="#A0D3F3"/>
<path d="M15.8611 6.6954C14.0382 4.51717 12.3991 2.78583 11.4503 1.82007L12.1854 10.9158L15.8611 6.6954Z" fill="#A0D3F3"/>
<path d="M10.4249 0.854248L6.30335 8.33889L11.349 12.259L10.4249 0.854248Z" fill="#A0D3F3"/>
<path d="M14.0274 33.6856L14.3782 38.0192L24.059 31.0219L19.3008 29.9069L14.0274 33.6856Z" fill="#A0D3F3"/>
<path d="M5.77245 31.1493L2.21373 32.6796L13.443 38.1458L13.0965 33.8569L5.77245 31.1493Z" fill="#A0D3F3"/>
<path d="M23.1053 18.8385L17.7228 18.281L13.1036 22.2617L13.939 32.5918L18.8158 29.0958L23.1053 18.8385Z" fill="#A0D3F3"/>
<path d="M24.4648 30.1511L23.9539 19.2485L19.8491 29.0686L24.4648 30.1511Z" fill="#A0D3F3"/>
<path d="M49.828 8.63647H48.8396C48.6339 8.63647 48.5301 8.73832 48.5301 8.94464V26.3397C48.5301 26.4003 48.5151 26.4319 48.4844 26.4319C48.4416 26.4259 48.4028 26.4035 48.3762 26.3696L39.4491 8.85245C39.3866 8.70847 39.2635 8.63647 39.078 8.63647H38.0588C37.8522 8.63647 37.7502 8.73832 37.7502 8.94464V29.9148C37.7502 30.1202 37.8522 30.2221 38.0588 30.2221H39.0472C39.253 30.2221 39.3567 30.1202 39.3567 29.9148V12.5522C39.3567 12.4916 39.3717 12.4547 39.4025 12.4451C39.4332 12.4354 39.4684 12.4451 39.5106 12.4916L48.407 30.0096C48.4685 30.1536 48.5925 30.2247 48.7781 30.2247H49.828C50.0338 30.2247 50.1367 30.1229 50.1367 29.9174V8.94464C50.1367 8.73832 50.0347 8.63647 49.828 8.63647Z" fill="black"/>
<path d="M73.6148 8.63647H72.5956C72.389 8.63647 72.2861 8.73832 72.2861 8.94464V24.273C72.2861 25.6906 71.8757 26.837 71.055 27.712C70.2343 28.587 69.1533 29.0237 67.812 29.0219C66.4525 29.0219 65.3659 28.5853 64.5522 27.712C63.7386 26.8387 63.3317 25.6924 63.3317 24.273V8.94464C63.3317 8.73832 63.2288 8.63647 63.0239 8.63647H62.0039C61.7981 8.63647 61.6952 8.73832 61.6952 8.94464V24.1492C61.6952 25.4047 61.9476 26.5098 62.4524 27.4644C62.9349 28.3983 63.6812 29.1703 64.5989 29.6848C65.5257 30.2116 66.5967 30.4749 67.812 30.4749C69.0272 30.4749 70.098 30.2116 71.0242 29.6848C71.9418 29.1698 72.6883 28.398 73.1716 27.4644C73.6758 26.5092 73.9279 25.4041 73.9279 24.1492V8.94464C73.9235 8.73832 73.8197 8.63647 73.6148 8.63647Z" fill="black"/>
<path d="M96.134 8.63647H84.2716C84.0659 8.63647 83.9621 8.73832 83.9621 8.94464V9.77783C83.9621 9.98327 84.0659 10.0851 84.2716 10.0851H89.1221C89.1389 10.0829 89.1559 10.0846 89.1719 10.0901C89.1879 10.0956 89.2024 10.1046 89.2143 10.1166C89.2262 10.1286 89.2352 10.1431 89.2406 10.1592C89.2459 10.1752 89.2475 10.1922 89.2452 10.2089V29.9148C89.2452 30.1202 89.3481 30.2221 89.5539 30.2221H90.573C90.7797 30.2221 90.8825 30.1202 90.8825 29.9148V10.2089C90.8802 10.1922 90.8818 10.1752 90.8872 10.1592C90.8925 10.1431 90.9015 10.1286 90.9134 10.1166C90.9254 10.1046 90.9399 10.0956 90.9559 10.0901C90.9719 10.0846 90.9889 10.0829 91.0057 10.0851H96.134C96.3389 10.0851 96.4427 9.98327 96.4427 9.77783V8.94464C96.4427 8.73832 96.3389 8.63647 96.134 8.63647Z" fill="black"/>
<path d="M114.605 20.0466C114.564 19.986 114.585 19.9342 114.668 19.893C115.835 19.6573 116.869 18.9844 117.555 18.0124C118.268 17.025 118.624 15.8125 118.624 14.375C118.624 12.6483 118.135 11.25 117.156 10.1801C116.178 9.11012 114.896 8.57574 113.311 8.57691H107.04C106.834 8.57691 106.732 8.67963 106.732 8.88507V29.9149C106.732 30.1204 106.834 30.2222 107.04 30.2222H108.059C108.265 30.2222 108.368 30.1204 108.368 29.9149V20.1695C108.366 20.1527 108.367 20.1356 108.373 20.1195C108.378 20.1035 108.387 20.0888 108.399 20.0768C108.411 20.0649 108.426 20.0558 108.442 20.0504C108.458 20.045 108.475 20.0434 108.492 20.0457H112.908C112.936 20.0448 112.964 20.0536 112.987 20.0707C113.009 20.0878 113.025 20.1122 113.032 20.1397L117.11 29.9782C117.13 30.0512 117.175 30.1153 117.237 30.1598C117.298 30.2044 117.373 30.227 117.449 30.224H118.504C118.689 30.224 118.782 30.1423 118.782 29.9782L118.751 29.8544L114.605 20.0466ZM108.489 18.6893C108.473 18.6919 108.456 18.6906 108.439 18.6855C108.423 18.6803 108.409 18.6714 108.397 18.6595C108.384 18.6477 108.375 18.6331 108.37 18.6171C108.365 18.6011 108.363 18.584 108.365 18.5673V10.1774C108.363 10.1606 108.365 10.1435 108.37 10.1274C108.375 10.1114 108.385 10.0967 108.397 10.0847C108.409 10.0727 108.423 10.0637 108.439 10.0583C108.455 10.0529 108.473 10.0513 108.489 10.0536H113.15C114.303 10.0536 115.23 10.4496 115.93 11.2415C116.631 12.0334 116.981 13.087 116.98 14.4022C116.98 15.677 116.63 16.7104 115.93 17.5023C115.23 18.2942 114.304 18.6896 113.15 18.6884L108.489 18.6893Z" fill="black"/>
<path d="M130.421 8.63647H129.402C129.231 8.63647 129.093 8.77445 129.093 8.94464V29.9174C129.093 30.0876 129.231 30.2256 129.402 30.2256H130.421C130.592 30.2256 130.73 30.0876 130.73 29.9174V8.94464C130.73 8.77445 130.592 8.63647 130.421 8.63647Z" fill="black"/>
<path d="M152.278 9.40651C151.361 8.8727 150.305 8.60551 149.112 8.60492H141.976C141.927 8.60398 141.878 8.61316 141.833 8.63189C141.787 8.65062 141.746 8.6785 141.712 8.71379C141.677 8.74772 141.649 8.78869 141.63 8.83405C141.612 8.87942 141.603 8.92817 141.604 8.97718V29.8552C141.604 29.9037 141.613 29.9518 141.632 29.9967C141.651 30.0416 141.678 30.0824 141.712 30.1168C141.747 30.1511 141.787 30.1784 141.832 30.1969C141.877 30.2154 141.926 30.2249 141.974 30.2248H144.817C144.866 30.2249 144.914 30.2154 144.959 30.1969C145.004 30.1784 145.045 30.1511 145.079 30.1168C145.114 30.0824 145.141 30.0416 145.159 29.9967C145.178 29.9518 145.187 29.9037 145.187 29.8552V21.4355C145.184 21.4146 145.186 21.3934 145.193 21.3734C145.2 21.3534 145.211 21.3353 145.226 21.3204C145.241 21.3055 145.259 21.2943 145.279 21.2876C145.299 21.2809 145.32 21.2789 145.341 21.2818H149.141C150.313 21.2818 151.359 21.0185 152.277 20.4917C153.186 19.9773 153.927 19.213 154.413 18.2897C154.918 17.3445 155.17 16.2546 155.169 15.0202C155.169 13.7665 154.917 12.6509 154.413 11.6734C153.936 10.7273 153.194 9.93981 152.278 9.40651ZM150.764 17.5031C150.217 18.1101 149.491 18.4135 148.586 18.4135H145.342C145.321 18.4165 145.3 18.4145 145.279 18.4078C145.259 18.401 145.241 18.3896 145.226 18.3745C145.211 18.3594 145.2 18.341 145.193 18.3208C145.187 18.3006 145.185 18.2791 145.188 18.2581V11.8437C145.185 11.8227 145.187 11.8013 145.193 11.7811C145.2 11.7609 145.211 11.7425 145.226 11.7274C145.241 11.7123 145.259 11.7009 145.279 11.6941C145.3 11.6873 145.321 11.6853 145.342 11.6883H148.586C149.492 11.6883 150.218 11.9968 150.764 12.6137C151.311 13.2306 151.583 14.0533 151.582 15.0817C151.582 16.0896 151.309 16.8967 150.764 17.5031Z" fill="black"/>
<path d="M177.222 8.63649H174.379C174.331 8.63602 174.282 8.64526 174.237 8.66367C174.192 8.68208 174.151 8.70929 174.116 8.74371C174.082 8.77812 174.055 8.81906 174.036 8.86411C174.018 8.90917 174.009 8.95744 174.009 9.00611V23.9315C174.009 24.9593 173.711 25.7922 173.114 26.4302C172.517 27.0682 171.734 27.3866 170.764 27.3854C169.798 27.3854 169.021 27.067 168.433 26.4302C167.846 25.7934 167.553 24.9605 167.554 23.9315V9.00611C167.554 8.95739 167.544 8.90913 167.526 8.86412C167.507 8.81911 167.48 8.77824 167.445 8.74387C167.41 8.7095 167.369 8.68231 167.324 8.66388C167.279 8.64545 167.231 8.63614 167.182 8.63649H164.339C164.29 8.63626 164.242 8.64567 164.197 8.66418C164.152 8.6827 164.112 8.70994 164.077 8.74434C164.043 8.77873 164.016 8.81958 163.998 8.86452C163.979 8.90946 163.97 8.95759 163.97 9.00611V23.748C163.97 25.0854 164.253 26.2628 164.818 27.2801C165.369 28.2827 166.202 29.1027 167.214 29.6391C168.242 30.1952 169.426 30.4726 170.764 30.4715C172.126 30.4715 173.32 30.194 174.348 29.6391C175.359 29.1027 176.192 28.2831 176.743 27.2809C177.309 26.2613 177.592 25.084 177.592 23.7489V9.00611C177.593 8.95744 177.584 8.90917 177.565 8.86411C177.547 8.81906 177.52 8.77812 177.485 8.74371C177.451 8.70929 177.41 8.68208 177.364 8.66367C177.319 8.64526 177.271 8.63602 177.222 8.63649Z" fill="black"/>
<path d="M197.454 20.6963C197.443 20.6768 197.435 20.6548 197.434 20.6321C197.432 20.6094 197.435 20.5866 197.444 20.5655C197.452 20.5443 197.466 20.5255 197.483 20.5104C197.5 20.4953 197.52 20.4844 197.542 20.4786C198.59 20.0679 199.478 19.3331 200.077 18.382C200.693 17.4162 201.002 16.2544 201.003 14.8965C201.003 13.6626 200.756 12.5678 200.26 11.612C199.793 10.6834 199.063 9.91134 198.162 9.39075C197.254 8.86749 196.214 8.6041 195.042 8.60059H187.906C187.807 8.60058 187.713 8.63947 187.643 8.70874C187.573 8.77801 187.534 8.87202 187.534 8.97021V29.8552C187.534 29.9039 187.543 29.952 187.562 29.9969C187.581 30.0418 187.608 30.0826 187.643 30.1169C187.677 30.1513 187.718 30.1785 187.764 30.197C187.809 30.2155 187.857 30.225 187.906 30.2248H190.749C190.847 30.2246 190.941 30.1856 191.01 30.1163C191.079 30.0471 191.118 29.9532 191.119 29.8552V21.0659C191.116 21.045 191.117 21.0236 191.124 21.0035C191.131 20.9835 191.142 20.9652 191.157 20.9502C191.172 20.9352 191.19 20.9239 191.21 20.9171C191.23 20.9104 191.252 20.9084 191.273 20.9114H193.899C193.959 20.9114 194.011 20.9518 194.053 21.0343L197.423 29.9149C197.446 30.0094 197.502 30.0925 197.582 30.1489C197.661 30.2053 197.758 30.2313 197.855 30.2222H200.82C201.026 30.2222 201.128 30.1406 201.128 29.9764C201.131 29.9132 201.121 29.8501 201.098 29.7911L197.454 20.6963ZM196.622 17.2722C196.085 17.8482 195.385 18.1362 194.52 18.1362H191.275C191.254 18.1388 191.233 18.1366 191.213 18.1296C191.193 18.1226 191.174 18.1111 191.16 18.096C191.145 18.0809 191.133 18.0626 191.127 18.0424C191.12 18.0223 191.118 18.0009 191.121 17.9799V11.8438C191.118 11.8228 191.12 11.8014 191.127 11.7813C191.133 11.7612 191.145 11.7429 191.16 11.7279C191.174 11.7128 191.193 11.7014 191.213 11.6945C191.233 11.6877 191.254 11.6856 191.275 11.6884H194.518C195.384 11.6884 196.084 11.9869 196.62 12.5839C197.156 13.1809 197.423 13.9711 197.423 14.9544C197.423 15.9243 197.156 16.6969 196.622 17.2722Z" fill="black"/>
<path d="M214.044 11.7199H222.631C222.679 11.7201 222.727 11.7107 222.772 11.6922C222.817 11.6737 222.858 11.6465 222.893 11.6121C222.927 11.5777 222.954 11.5369 222.973 11.4919C222.991 11.447 223 11.3988 223 11.3503V9.00611C223 8.95751 222.991 8.90931 222.973 8.86431C222.954 8.81931 222.927 8.77842 222.893 8.74401C222.858 8.70961 222.818 8.68238 222.773 8.66392C222.728 8.64546 222.679 8.63613 222.631 8.63648H210.671C210.623 8.63613 210.574 8.64546 210.529 8.66391C210.484 8.68236 210.443 8.70957 210.409 8.74396C210.374 8.77836 210.347 8.81924 210.329 8.86424C210.31 8.90925 210.301 8.95747 210.301 9.00611V29.8551C210.301 29.9037 210.311 29.9518 210.329 29.9967C210.348 30.0416 210.375 30.0824 210.409 30.1167C210.444 30.1511 210.485 30.1783 210.53 30.1968C210.575 30.2154 210.623 30.2248 210.671 30.2247H222.631C222.679 30.225 222.727 30.2156 222.772 30.1971C222.817 30.1786 222.858 30.1513 222.893 30.1169C222.927 30.0826 222.954 30.0417 222.973 29.9968C222.991 29.9518 223 29.9037 223 29.8551V27.5109C223.001 27.4621 222.992 27.4135 222.973 27.3683C222.955 27.323 222.927 27.2819 222.893 27.2476C222.859 27.2123 222.818 27.1846 222.772 27.1662C222.727 27.1477 222.678 27.139 222.629 27.1404H214.042C214.021 27.1435 214 27.1417 213.98 27.1351C213.959 27.1284 213.941 27.1172 213.926 27.1023C213.911 27.0874 213.9 27.0692 213.893 27.0491C213.886 27.0291 213.884 27.0077 213.887 26.9868V21.0658C213.884 21.0448 213.886 21.0234 213.893 21.0032C213.899 20.983 213.911 20.9647 213.926 20.9497C213.941 20.9347 213.959 20.9234 213.979 20.9167C213.999 20.91 214.021 20.9082 214.042 20.9113H219.539C219.588 20.9114 219.636 20.9019 219.681 20.8833C219.726 20.8646 219.768 20.8373 219.802 20.8028C219.837 20.7683 219.864 20.7273 219.883 20.6822C219.901 20.6371 219.911 20.5887 219.911 20.5399V18.1975C219.911 18.099 219.872 18.0046 219.802 17.9349C219.732 17.8653 219.637 17.8261 219.539 17.8261H214.042C214.021 17.8294 214 17.8277 213.979 17.8211C213.959 17.8146 213.941 17.8034 213.926 17.7884C213.911 17.7735 213.899 17.7552 213.893 17.735C213.886 17.7149 213.884 17.6935 213.887 17.6725V11.8779C213.883 11.8565 213.885 11.8344 213.891 11.8137C213.898 11.7929 213.909 11.7739 213.925 11.7585C213.94 11.743 213.959 11.7314 213.979 11.7247C214 11.718 214.022 11.7163 214.044 11.7199Z" fill="black"/>
</svg>
